{
	"asset":{
		"generator":"Khronos glTF Blender I/O v4.1.63",
		"version":"2.0"
	},
	"scene":0,
	"scenes":[
		{
			"name":"Scene",
			"nodes":[
				0
			]
		}
	],
	"nodes":[
		{
			"mesh":0,
			"name":"Sphere"
		}
	],
	"materials":[
		{
			"doubleSided":true,
			"name":"Material",
			"pbrMetallicRoughness":{
				"baseColorFactor":[
					0.800000011920929,
					0.800000011920929,
					0.800000011920929,
					1
				],
				"metallicFactor":0,
				"roughnessFactor":0.5
			}
		}
	],
	"meshes":[
		{
			"name":"Sphere",
			"primitives":[
				{
					"attributes":{
						"POSITION":0,
						"NORMAL":1,
						"TEXCOORD_0":2
					},
					"indices":3,
					"material":0
				}
			]
		}
	],
	"accessors":[
		{
			"bufferView":0,
			"componentType":5126,
			"count":2008,
			"max":[
				1,
				2.5604281425476074,
				1
			],
			"min":[
				-1,
				-0.9999998807907104,
				-1
			],
			"type":"VEC3"
		},
		{
			"bufferView":1,
			"componentType":5126,
			"count":2008,
			"type":"VEC3"
		},
		{
			"bufferView":2,
			"componentType":5126,
			"count":2008,
			"type":"VEC2"
		},
		{
			"bufferView":3,
			"componentType":5123,
			"count":2916,
			"type":"SCALAR"
		}
	],
	"bufferViews":[
		{
			"buffer":0,
			"byteLength":24096,
			"byteOffset":0,
			"target":34962
		},
		{
			"buffer":0,
			"byteLength":24096,
			"byteOffset":24096,
			"target":34962
		},
		{
			"buffer":0,
			"byteLength":16064,
			"byteOffset":48192,
			"target":34962
		},
		{
			"buffer":0,
			"byteLength":5832,
			"byteOffset":64256,
			"target":34963
		}
	],
	"buffers":[
		{
			"byteLength":70088,
			"uri":"sphereNcube.bin"
		}
	]
}
