{
	"asset":{
		"generator":"Khronos glTF Blender I/O v4.3.47",
		"version":"2.0"
	},
	"scene":0,
	"scenes":[
		{
			"name":"Scene",
			"nodes":[
				0
			]
		}
	],
	"nodes":[
		{
			"mesh":0,
			"name":"Sphere"
		}
	],
	"meshes":[
		{
			"name":"Sphere.001",
			"primitives":[
				{
					"attributes":{
						"POSITION":0,
						"NORMAL":1,
						"TEXCOORD_0":2
					},
					"indices":3
				}
			]
		}
	],
	"accessors":[
		{
			"bufferView":0,
			"componentType":5126,
			"count":525,
			"max":[
				0.9945221543312073,
				1,
				1.0000004768371582
			],
			"min":[
				-0.9945226907730103,
				-1,
				-1
			],
			"type":"VEC3"
		},
		{
			"bufferView":1,
			"componentType":5126,
			"count":525,
			"type":"VEC3"
		},
		{
			"bufferView":2,
			"componentType":5126,
			"count":525,
			"type":"VEC2"
		},
		{
			"bufferView":3,
			"componentType":5123,
			"count":2700,
			"type":"SCALAR"
		}
	],
	"bufferViews":[
		{
			"buffer":0,
			"byteLength":6300,
			"byteOffset":0,
			"target":34962
		},
		{
			"buffer":0,
			"byteLength":6300,
			"byteOffset":6300,
			"target":34962
		},
		{
			"buffer":0,
			"byteLength":4200,
			"byteOffset":12600,
			"target":34962
		},
		{
			"buffer":0,
			"byteLength":5400,
			"byteOffset":16800,
			"target":34963
		}
	],
	"buffers":[
		{
			"byteLength":22200,
			"uri":"sphere3.bin"
		}
	]
}
